<?xml version="1.0" encoding="UTF-8"?>
<svg version="1.1" xmlns="http://www.w3.org/2000/svg" width="280" height="180">
<path d="M0 0 C5.01016001 2.98072811 8.00353096 7.15715479 10.5 12.375 C12.07974609 12.14103516 12.07974609 12.14103516 13.69140625 11.90234375 C25.94475709 10.20374622 37.52433798 9.65736446 49.5 13.375 C49.5825 12.83875 49.665 12.3025 49.75 11.75 C51.63295399 5.78731236 55.18297597 2.42946061 60.5 -0.625 C66.48775783 -2.62091928 74.05047896 -2.86383728 80.0234375 -0.71875 C85.30128434 2.43582512 89.20299858 6.59571123 91.8125 12.1875 C93.31589452 19.1577837 93.01221044 24.82384425 89.84765625 31.2890625 C87.67077635 34.65849399 84.89437158 37.24306711 81.5 39.375 C80.84 39.375 80.18 39.375 79.5 39.375 C79.55800781 40.26960938 79.61601562 41.16421875 79.67578125 42.0859375 C80.08692232 53.10451819 77.68201795 60.58735718 70.2578125 68.76953125 C66.98647819 71.75734992 63.2783318 74.08281204 59.5 76.375 C60.14066406 76.88289063 60.78132813 77.39078125 61.44140625 77.9140625 C64.13545619 80.05806051 66.81758948 82.21646701 69.5 84.375 C70.14066406 84.87515625 70.78132813 85.3753125 71.44140625 85.890625 C76.57707058 90.03728669 80.63302933 95.04159369 84.5 100.375 C84.5 100.705 84.5 101.035 84.5 101.375 C48.2 101.375 11.9 101.375 -25.5 101.375 C-19.00829506 91.63744258 -10.99319115 81.30305267 0.5 77.375 C0.5 76.715 0.5 76.055 0.5 75.375 C-0.49 75.065625 -0.49 75.065625 -1.5 74.75 C-10.51692638 70.61724207 -16.15259151 64.13682085 -19.875 55 C-20.45193354 51.65378548 -20.3601113 49.16283607 -20.125 45.8125 C-19.96656559 41.79755978 -19.96656559 41.79755978 -22.1328125 38.6171875 C-23.55545668 37.65650896 -24.99771559 36.72431335 -26.45703125 35.8203125 C-30.99866627 32.60730111 -32.52753451 27.349691 -33.5 22.0625 C-33.94075442 15.69359864 -31.97321012 9.31010988 -27.84765625 4.4140625 C-20.29559891 -2.36130623 -9.42469095 -4.30843015 0 0 Z " fill="#CC7736" transform="translate(110.5,14.625)"/>
<path d="M0 0 C5.45948972 4.8679423 8.45790987 10.42235 9.31640625 17.671875 C9.58738904 24.00063445 8.60832227 28.74554531 5 34 C0.65217505 38.34782495 -6.59932418 37.18348911 -12.375 37.1875 C-13.29539063 37.19974609 -14.21578125 37.21199219 -15.1640625 37.22460938 C-20.47570513 37.23599147 -25.06925007 37.07308373 -30 35 C-34.31691542 30.06638237 -35.73362003 23.8035053 -35.3515625 17.37890625 C-34.28569296 10.16652233 -31.26033551 5.02062402 -26 0 C-17.98994455 -5.86101619 -7.99559322 -5.61181387 0 0 Z " fill="#E48C51" transform="translate(153,60)"/>
<path d="M0 0 C4.88297689 2.51600425 7.02143891 9.28055581 9.17578125 14.12109375 C9.50578125 9.83109375 9.83578125 5.54109375 10.17578125 1.12109375 C14.52522394 0.25120521 16.1470665 0.08513853 20.17578125 1.12109375 C20.20043315 5.94490177 20.21861818 10.76867342 20.23071289 15.5925293 C20.23575299 17.23478839 20.24258503 18.87704298 20.2512207 20.51928711 C20.26330051 22.87484854 20.26901264 25.23035084 20.2734375 27.5859375 C20.27859879 28.32448471 20.28376007 29.06303192 20.28907776 29.82395935 C20.28927375 31.59007463 20.23772844 33.35606521 20.17578125 35.12109375 C19.17578125 36.12109375 19.17578125 36.12109375 17.109375 36.21875 C13.64257812 36.16992188 13.64257812 36.16992188 10.17578125 36.12109375 C6.21578125 29.19109375 6.21578125 29.19109375 2.17578125 22.12109375 C1.84578125 26.74109375 1.51578125 31.36109375 1.17578125 36.12109375 C-1.79421875 36.12109375 -4.76421875 36.12109375 -7.82421875 36.12109375 C-7.82421875 24.57109375 -7.82421875 13.02109375 -7.82421875 1.12109375 C-5.1942068 -0.19391223 -2.90179253 -0.34481995 0 0 Z " fill="#7F4B25" transform="translate(168.82421875,127.87890625)"/>
<path d="M0 0 C0.66 0.33 1.32 0.66 2 1 C1.25 7.75 1.25 7.75 -1 10 C-4.625 9.625 -4.625 9.625 -8 9 C-8.33 9.66 -8.66 10.32 -9 11 C-8.113125 11.2475 -7.22625 11.495 -6.3125 11.75 C-2.3201848 13.25653404 1.04062332 15.08124663 3 19 C3.55818953 23.57532404 3.35024011 27.1624693 1.5625 31.4375 C-1.97091889 34.97091889 -5.07178924 35.74954995 -10 36 C-14.18383228 35.70322297 -17.15986058 34.88955938 -20.125 31.75 C-21.26160556 28.17781108 -20.48762 26.36671894 -19 23 C-17.63875 23.5259375 -17.63875 23.5259375 -16.25 24.0625 C-12.99408687 25.00170571 -12.07250006 24.95514676 -9 24 C-9.55429687 23.59007812 -10.10859375 23.18015625 -10.6796875 22.7578125 C-11.40414062 22.21898437 -12.12859375 21.68015625 -12.875 21.125 C-13.59429687 20.59132812 -14.31359375 20.05765625 -15.0546875 19.5078125 C-18.22446882 17.05091373 -18.92607894 16.34117413 -19.8125 12.25 C-20.22588958 8.03189518 -19.52751821 5.50591235 -17 2 C-11.60772797 -1.76205026 -6.20168723 -2.06722908 0 0 Z " fill="#7F4B25" transform="translate(53,129)"/>
<path d="M0 0 C1.1446875 0.2475 1.1446875 0.2475 2.3125 0.5 C5.83310259 1.15499583 8.31939726 0.94333274 11.875 0.3125 C14.91596169 -0.07880022 15.93209786 -0.02804653 18.875 1.1875 C21.9101688 3.77632044 22.86072485 5.83721445 23.3359375 9.8046875 C23.41700874 16.17688692 23.39956197 20.21224139 19 25 C16.04335481 26.4783226 13.25770263 26.06032783 10 26 C10.01160156 26.63808594 10.02320312 27.27617187 10.03515625 27.93359375 C10.04417969 28.75988281 10.05320312 29.58617187 10.0625 30.4375 C10.07410156 31.26121094 10.08570312 32.08492187 10.09765625 32.93359375 C10 35 10 35 9 36 C5.5 36.125 5.5 36.125 2 36 C1 35 1 35 0.88647461 32.49975586 C0.89171143 31.41573486 0.89694824 30.33171387 0.90234375 29.21484375 C0.90717773 27.46010742 0.90717773 27.46010742 0.91210938 25.66992188 C0.92048828 24.43822266 0.92886719 23.20652344 0.9375 21.9375 C0.94201172 20.70193359 0.94652344 19.46636719 0.95117188 18.19335938 C0.96300392 15.12885883 0.97948827 12.06445279 1 9 C0.01 9 -0.98 9 -2 9 C-2.6875 6.75 -2.6875 6.75 -3 4 C-1.5625 1.6875 -1.5625 1.6875 0 0 Z M11 9 C9.76732652 10.00836062 9.76732652 10.00836062 9.90234375 12.06640625 C9.91394531 12.89011719 9.92554687 13.71382812 9.9375 14.5625 C9.94652344 15.38878906 9.95554687 16.21507812 9.96484375 17.06640625 C9.97644531 17.70449219 9.98804687 18.34257812 10 19 C11.32 18.67 12.64 18.34 14 18 C14 15.36 14 12.72 14 10 C13.01 9.67 12.02 9.34 11 9 Z " fill="#7E4B24" transform="translate(89,138)"/>
<path d="M0 0 C3.5 0.125 3.5 0.125 4.5 1.125 C4.57325168 3.98767567 4.59238205 6.825719 4.5625 9.6875 C4.55798828 10.49380859 4.55347656 11.30011719 4.54882812 12.13085938 C4.53700518 14.12893756 4.51906914 16.12697783 4.5 18.125 C5.82 18.125 7.14 18.125 8.5 18.125 C8.5 12.515 8.5 6.905 8.5 1.125 C15.5 0.125 15.5 0.125 17.5 1.125 C17.5 6.735 17.5 12.345 17.5 18.125 C18.49 18.455 19.48 18.785 20.5 19.125 C20.1875 22 20.1875 22 19.5 25.125 C18.51 25.785 17.52 26.445 16.5 27.125 C15.571875 26.795 14.64375 26.465 13.6875 26.125 C10.52532885 24.79116453 10.52532885 24.79116453 7.5 26.125 C4.5 27.125 4.5 27.125 1.3125 26.5625 C-2.1926939 24.77095645 -2.90479108 23.72003352 -4.5 20.125 C-4.87921547 16.86521254 -4.82860957 13.6520364 -4.75 10.375 C-4.74484375 9.49972656 -4.7396875 8.62445313 -4.734375 7.72265625 C-4.64064577 0.16573735 -4.64064577 0.16573735 0 0 Z " fill="#804E27" transform="translate(64.5,137.875)"/>
<path d="M0 0 C3.14449181 3.4303547 3.1916844 6.46546048 3.125 11 C3.11597656 11.79921875 3.10695313 12.5984375 3.09765625 13.421875 C3.08605469 14.02515625 3.07445312 14.6284375 3.0625 15.25 C4.0525 15.58 5.0425 15.91 6.0625 16.25 C6.43173077 21.78846154 6.43173077 21.78846154 4.5625 24.125 C4.0675 24.49625 3.5725 24.8675 3.0625 25.25 C2.051875 24.87875 1.04125 24.5075 0 24.125 C-3.24863588 23.16219864 -4.02014685 23.27464906 -7.5 24.3125 C-10.9375 25.25 -10.9375 25.25 -14.25 24.125 C-18.14876761 21.40492958 -18.14876761 21.40492958 -18.9375 18.25 C-18.61658612 12.1526362 -18.61658612 12.1526362 -16.6796875 9.578125 C-14.48415493 7.90440062 -12.98377887 7.76059992 -10.25 7.5625 C-9.03763672 7.46388672 -9.03763672 7.46388672 -7.80078125 7.36328125 C-7.18589844 7.32589844 -6.57101562 7.28851563 -5.9375 7.25 C-5.9375 6.59 -5.9375 5.93 -5.9375 5.25 C-7.8865625 5.5284375 -7.8865625 5.5284375 -9.875 5.8125 C-12.08984375 6.12890625 -12.08984375 6.12890625 -13.9375 6.25 C-14.9375 5.25 -14.9375 5.25 -15 2.1875 C-14.979375 1.218125 -14.95875 0.24875 -14.9375 -0.75 C-9.70442212 -2.49435929 -4.72873405 -2.81711816 0 0 Z M-9.9375 13.25 C-9.6075 14.57 -9.2775 15.89 -8.9375 17.25 C-7.9475 17.25 -6.9575 17.25 -5.9375 17.25 C-5.9375 15.93 -5.9375 14.61 -5.9375 13.25 C-7.2575 13.25 -8.5775 13.25 -9.9375 13.25 Z " fill="#804E28" transform="translate(262.9375,139.75)"/>
<path d="M0 0 C3.24044458 2.56535196 4.69560167 4.086805 6 8 C6.36878104 13.62391086 6.1678247 17.13512635 3 22 C0.21858642 24.68869979 -2.14095342 25.73076419 -6 26 C-10.19371397 25.33783464 -12.38153956 24.60260248 -15.4375 21.625 C-17.69156709 16.39556434 -17.78712281 11.61218566 -17 6 C-13.06119436 -1.0335815 -7.37525664 -2.06402013 0 0 Z M-8 8 C-8 10.64 -8 13.28 -8 16 C-6.05396726 16.59070014 -6.05396726 16.59070014 -4 17 C-2.58422523 15.81575674 -2.58422523 15.81575674 -2.9375 12.4375 C-2.958125 11.303125 -2.97875 10.16875 -3 9 C-4.65 8.67 -6.3 8.34 -8 8 Z " fill="#7F4B25" transform="translate(210,139)"/>
<path d="M0 0 C2.97 0 5.94 0 9 0 C10.32 4.29 11.64 8.58 13 13 C13.28875 11.040625 13.5775 9.08125 13.875 7.0625 C14.3671875 3.72265625 14.3671875 3.72265625 15 1 C17.95664519 -0.4783226 20.74229737 -0.06032783 24 0 C25.15725729 3.41021564 24.82604883 5.52304486 23.8203125 8.94921875 C23.55089844 9.87927734 23.28148437 10.80933594 23.00390625 11.76757812 C22.71386719 12.73115234 22.42382812 13.69472656 22.125 14.6875 C21.84269531 15.66267578 21.56039062 16.63785156 21.26953125 17.64257812 C19.1541718 24.8458282 19.1541718 24.8458282 18 26 C15.98035801 26.07244053 13.95832876 26.08377188 11.9375 26.0625 C10.28041016 26.04896484 10.28041016 26.04896484 8.58984375 26.03515625 C7.73519531 26.02355469 6.88054687 26.01195312 6 26 C4.98905456 22.60732806 3.99319949 19.21040545 3 15.8125 C2.71382812 14.85279297 2.42765625 13.89308594 2.1328125 12.90429688 C1.86210937 11.97294922 1.59140625 11.04160156 1.3125 10.08203125 C1.06113281 9.22843018 0.80976563 8.3748291 0.55078125 7.49536133 C-0.01786865 4.91904455 -0.09883894 2.62952773 0 0 Z " fill="#814E28" transform="translate(218,138)"/>
<path d="M0 0 C2.5625 1.5625 2.5625 1.5625 4 4 C4.78506324 8.02448208 4.6235507 10.96074884 2.5 14.5 C-1.14008723 16.68405234 -3.79654733 16.28023018 -8 16 C-7.67 16.66 -7.34 17.32 -7 18 C-4.03 17.67 -1.06 17.34 2 17 C2.33 18.98 2.66 20.96 3 23 C-0.57897251 25.38598167 -2.71590055 25.78579503 -7 26 C-11.25249171 24.77470578 -13.46062269 23.59469806 -16.4375 20.3125 C-18.33629892 16.28704629 -18.73236335 13.36802428 -18 9 C-16.56762553 5.38495966 -15.07746372 2.43632544 -12 0 C-7.81465483 -1.39511506 -4.2702426 -0.97121041 0 0 Z M-8 7 C-8.33 7.99 -8.66 8.98 -9 10 C-7.68 10.33 -6.36 10.66 -5 11 C-5 9.68 -5 8.36 -5 7 C-5.99 7 -6.98 7 -8 7 Z " fill="#7F4B25" transform="translate(133,139)"/>
<path d="M0 0 C3.41682721 2.31138311 5.55228284 5.00972792 6.46484375 9.06640625 C6.72544217 14.559821 4.89331617 17.80375324 1.4375 21.8125 C0 23 0 23 -2 23 C-3.06860995 21.83370548 -4.0802998 20.61494068 -5.0625 19.375 C-8.81570118 14.92500197 -13.03304955 11.97341252 -18 9 C-17.3046875 4.28125 -17.3046875 4.28125 -14.5625 1.75 C-9.6386337 -1.6126404 -5.74118501 -1.55380695 0 0 Z " fill="#E58D52" transform="translate(187,23)"/>
<path d="M0 0 C3 1.75 3 1.75 5 4 C5.625 6.640625 5.625 6.640625 6 9 C5.26394531 9.50789063 4.52789062 10.01578125 3.76953125 10.5390625 C-1.55483078 14.29495328 -6.16423239 17.70928605 -10 23 C-14.02238501 20.93445094 -16.19096176 19.18935171 -18 15 C-18.54223844 10.73955513 -18.30065535 8.57903994 -16.3125 4.75 C-11.39193554 -1.10148206 -7.2430211 -1.92884801 0 0 Z " fill="#E58D52" transform="translate(105,23)"/>
<path d="M0 0 C3.25696479 0.41755959 4.63443291 0.63443291 7 3 C7.556875 2.505 8.11375 2.01 8.6875 1.5 C11.39516153 -0.25632099 12.83379087 -0.34229288 16 0 C16.33 0.33 16.66 0.66 17 1 C16.82364548 3.69082872 16.38164079 6.32851446 16 9 C14.35 9 12.7 9 11 9 C11 14.61 11 20.22 11 26 C7.7 26 4.4 26 1 26 C1 20.39 1 14.78 1 9 C0.01 8.67 -0.98 8.34 -2 8 C-1.125 1.125 -1.125 1.125 0 0 Z " fill="#83512C" transform="translate(141,138)"/>
<path d="M0 0 C3.74347525 2.0017614 5.90710605 3.40167471 8.29296875 6.98046875 C-2.92703125 6.98046875 -14.14703125 6.98046875 -25.70703125 6.98046875 C-18.21917008 -0.50739242 -10.4802064 -3.94709072 0 0 Z " fill="#E58D52" transform="translate(148.70703125,109.01953125)"/>
<path d="M0 0 C2.5 1.1875 2.5 1.1875 4 3 C4.25 5.6875 4.25 5.6875 4 8 C2.02 8.99 0.04 9.98 -2 11 C-2 11.99 -2 12.98 -2 14 C-0.02 13.67 1.96 13.34 4 13 C3.67 14.32 3.34 15.64 3 17 C-1.62 17 -6.24 17 -11 17 C-11.33 15.68 -11.66 14.36 -12 13 C-9.69 13.33 -7.38 13.66 -5 14 C-5 12.68 -5 11.36 -5 10 C-7.97 9.505 -7.97 9.505 -11 9 C-11.75 6.75 -11.75 6.75 -12 4 C-9.04676358 -0.75085859 -5.1130737 -0.85916402 0 0 Z " fill="#7F4820" transform="translate(144,62)"/>
<path d="M0 0 C2.125 0.375 2.125 0.375 4 1 C4.625 3.3125 4.625 3.3125 5 6 C4.01 7.485 4.01 7.485 3 9 C1.68 8.67 0.36 8.34 -1 8 C-1.625 5.125 -1.625 5.125 -2 2 C-1.34 1.34 -0.68 0.68 0 0 Z " fill="#824A20" transform="translate(155,51)"/>
<path d="M0 0 C1.32 0 2.64 0 4 0 C4.33 2.31 4.66 4.62 5 7 C3.02 7.99 3.02 7.99 1 9 C-1 7 -1 7 -1.1875 3.9375 C-1 1 -1 1 0 0 Z " fill="#7F481F" transform="translate(122,51)"/>
</svg>
